<?xml version="1.0" encoding="UTF-8" standalone="no"?>
<!-- Created with Inkscape (http://www.inkscape.org/) -->

<svg
   xmlns:dc="http://purl.org/dc/elements/1.1/"
   xmlns:cc="http://creativecommons.org/ns#"
   xmlns:rdf="http://www.w3.org/1999/02/22-rdf-syntax-ns#"
   xmlns:svg="http://www.w3.org/2000/svg"
   xmlns="http://www.w3.org/2000/svg"
   xmlns:sodipodi="http://sodipodi.sourceforge.net/DTD/sodipodi-0.dtd"
   xmlns:inkscape="http://www.inkscape.org/namespaces/inkscape"
   width="199.35657mm"
   height="92.426331mm"
   viewBox="0 0 706.38154 327.49488"
   id="svg4945"
   version="1.1"
   inkscape:version="0.91 r13725"
   sodipodi:docname="bigdata.svg">
  <defs
     id="defs4947">
    <marker
       inkscape:isstock="true"
       style="overflow:visible;"
       id="marker5843"
       refX="0.0"
       refY="0.0"
       orient="auto"
       inkscape:stockid="Arrow1Lend">
      <path
         transform="scale(0.8) rotate(180) translate(12.5,0)"
         style="fill-rule:evenodd;stroke:#121259;stroke-width:1pt;stroke-opacity:1;fill:#121259;fill-opacity:1"
         d="M 0.0,0.0 L 5.0,-5.0 L -12.5,0.0 L 5.0,5.0 L 0.0,0.0 z "
         id="path5845" />
    </marker>
    <marker
       inkscape:stockid="Arrow1Lend"
       orient="auto"
       refY="0.0"
       refX="0.0"
       id="Arrow1Lend"
       style="overflow:visible;"
       inkscape:isstock="true"
       inkscape:collect="always">
      <path
         id="path5570"
         d="M 0.0,0.0 L 5.0,-5.0 L -12.5,0.0 L 5.0,5.0 L 0.0,0.0 z "
         style="fill-rule:evenodd;stroke:#121259;stroke-width:1pt;stroke-opacity:1;fill:#121259;fill-opacity:1"
         transform="scale(0.8) rotate(180) translate(12.5,0)" />
    </marker>
  </defs>
  <sodipodi:namedview
     id="base"
     pagecolor="#ffffff"
     bordercolor="#666666"
     borderopacity="1.0"
     inkscape:pageopacity="0.0"
     inkscape:pageshadow="2"
     inkscape:zoom="1.7216678"
     inkscape:cx="528.73551"
     inkscape:cy="178.93715"
     inkscape:document-units="px"
     inkscape:current-layer="layer1"
     showgrid="false"
     inkscape:window-width="1871"
     inkscape:window-height="1056"
     inkscape:window-x="49"
     inkscape:window-y="24"
     inkscape:window-maximized="1"
     fit-margin-top="0"
     fit-margin-left="0"
     fit-margin-right="0"
     fit-margin-bottom="0"
     inkscape:snap-global="true"
     inkscape:snap-intersection-paths="true"
     inkscape:object-paths="true"
     inkscape:snap-bbox="true"
     inkscape:bbox-paths="true"
     inkscape:bbox-nodes="true"
     inkscape:snap-bbox-midpoints="true"
     inkscape:snap-bbox-edge-midpoints="true"
     inkscape:object-nodes="true"
     inkscape:snap-smooth-nodes="true"
     showguides="false" />
  <metadata
     id="metadata4950">
    <rdf:RDF>
      <cc:Work
         rdf:about="">
        <dc:format>image/svg+xml</dc:format>
        <dc:type
           rdf:resource="http://purl.org/dc/dcmitype/StillImage" />
        <dc:title></dc:title>
      </cc:Work>
    </rdf:RDF>
  </metadata>
  <g
     inkscape:label="Layer 1"
     inkscape:groupmode="layer"
     id="layer1"
     transform="translate(-25.448675,-145.8466)">
    <path
       style="fill:#9fdbd1;fill-opacity:1;fill-rule:evenodd;stroke:#121259;stroke-width:2;stroke-linecap:butt;stroke-linejoin:miter;stroke-miterlimit:4;stroke-dasharray:none;stroke-opacity:1"
       d="m 98.10443,320.65738 -0.761212,111.85166 157.465892,-0.0879 0,-21.76102 c 0,0 -69.5059,-6.84 -100.50701,-26.89365 -21.75899,-14.07522 -56.19768,-63.10896 -56.19768,-63.10896 z"
       id="mediumdata"
       inkscape:connector-curvature="0"
       sodipodi:nodetypes="ccccacc" />
    <path
       style="fill:#f26768;fill-opacity:1;fill-rule:evenodd;stroke:#ffffff;stroke-width:2;stroke-linecap:butt;stroke-linejoin:miter;stroke-miterlimit:4;stroke-dasharray:none;stroke-opacity:1"
       d="m 254.80911,410.66012 0,21.76102 455.43822,-1.00618 c 0,0 -198.61315,-0.80553 -297.71911,-6.37742 -52.70779,-2.96331 -157.71911,-14.37742 -157.71911,-14.37742 z"
       id="longtail"
       inkscape:connector-curvature="0"
       sodipodi:nodetypes="cccac" />
    <path
       style="fill:#f26768;fill-opacity:1;fill-rule:evenodd;stroke:#ffffff;stroke-width:2;stroke-linecap:butt;stroke-linejoin:miter;stroke-miterlimit:4;stroke-dasharray:none;stroke-opacity:1"
       d="m 54.261956,146.17243 c 0,0 17.608123,127.15216 43.842474,174.48498 l -0.761212,111.85163 -42.029761,0.26622 z"
       id="bigdata"
       inkscape:connector-curvature="0"
       sodipodi:nodetypes="ccccc" />
    <text
       xml:space="preserve"
       style="font-style:normal;font-variant:normal;font-weight:600;font-stretch:normal;font-size:30px;line-height:125%;font-family:Raleway;-inkscape-font-specification:'Raleway Semi-Bold';letter-spacing:0px;word-spacing:0px;fill:#000000;fill-opacity:1;stroke:none;stroke-width:1px;stroke-linecap:butt;stroke-linejoin:miter;stroke-opacity:1"
       x="256.68472"
       y="465.04147"
       id="text5436"
       sodipodi:linespacing="125%"><tspan
         sodipodi:role="line"
         id="tspan5438"
         x="256.68472"
         y="465.04147">Number of Datasets</tspan></text>
    <text
       xml:space="preserve"
       style="font-style:normal;font-variant:normal;font-weight:600;font-stretch:normal;font-size:30px;line-height:125%;font-family:Raleway;-inkscape-font-specification:'Raleway Semi-Bold';letter-spacing:0px;word-spacing:0px;fill:#000000;fill-opacity:1;stroke:none;stroke-width:1px;stroke-linecap:butt;stroke-linejoin:miter;stroke-opacity:1"
       x="-422.81192"
       y="47.348675"
       id="text5440"
       sodipodi:linespacing="125%"
       transform="matrix(0,-1,1,0,0,0)"><tspan
         sodipodi:role="line"
         id="tspan5442"
         x="-422.81192"
         y="47.348675">Data Volume</tspan></text>
    <text
       xml:space="preserve"
       style="font-style:normal;font-weight:normal;font-size:30px;line-height:125%;font-family:sans-serif;letter-spacing:0px;word-spacing:0px;fill:#000000;fill-opacity:1;stroke:none;stroke-width:1px;stroke-linecap:butt;stroke-linejoin:miter;stroke-opacity:1"
       x="524.77228"
       y="233.71861"
       id="text5444"
       sodipodi:linespacing="125%"><tspan
         sodipodi:role="line"
         id="tspan5446"
         x="524.77228"
         y="233.71861"
         style="font-style:normal;font-variant:normal;font-weight:500;font-stretch:normal;font-size:35px;font-family:Raleway;-inkscape-font-specification:'Raleway Medium'"><tspan
   style="font-style:normal;font-variant:normal;font-weight:800;font-stretch:normal;font-size:35px;font-family:Raleway;-inkscape-font-specification:'Raleway Ultra-Bold'"
   id="tspan5456">V</tspan>olume</tspan><tspan
         sodipodi:role="line"
         x="524.77228"
         y="277.4686"
         id="tspan5448"
         style="font-style:normal;font-variant:normal;font-weight:500;font-stretch:normal;font-size:35px;font-family:Raleway;-inkscape-font-specification:'Raleway Medium'"><tspan
   style="font-style:normal;font-variant:normal;font-weight:800;font-stretch:normal;font-size:35px;font-family:Raleway;-inkscape-font-specification:'Raleway Ultra-Bold'"
   id="tspan5462">V</tspan>elocity</tspan><tspan
         sodipodi:role="line"
         x="524.77228"
         y="321.2186"
         id="tspan5450"
         style="font-style:normal;font-variant:normal;font-weight:500;font-stretch:normal;font-size:35px;font-family:Raleway;-inkscape-font-specification:'Raleway Medium'"><tspan
   style="font-style:normal;font-variant:normal;font-weight:800;font-stretch:normal;font-size:35px;font-family:Raleway;-inkscape-font-specification:'Raleway Ultra-Bold'"
   id="tspan5464">V</tspan>eracity</tspan><tspan
         sodipodi:role="line"
         x="524.77228"
         y="364.9686"
         id="tspan5452"
         style="font-style:normal;font-variant:normal;font-weight:500;font-stretch:normal;font-size:35px;font-family:Raleway;-inkscape-font-specification:'Raleway Medium'"><tspan
   style="font-style:normal;font-variant:normal;font-weight:800;font-stretch:normal;font-size:35px;font-family:Raleway;-inkscape-font-specification:'Raleway Ultra-Bold'"
   id="tspan5466">V</tspan>ariety</tspan></text>
    <g
       id="g5550"
       transform="matrix(1.3200065,0,0,1.3200065,358.13804,212.21918)">
      <g
         id="g5530">
        <path
           id="path5532"
           d="m 73.313,84.355 -1.314,0 -0.679,6.684 3.175,-4.427 c 0.372,-0.518 0.451,-1.075 0.218,-1.531 -0.236,-0.461 -0.747,-0.726 -1.4,-0.726 z"
           inkscape:connector-curvature="0" />
        <path
           id="path5534"
           d="m 28.397,84.355 c -0.654,0 -1.165,0.266 -1.402,0.728 -0.234,0.455 -0.155,1.013 0.215,1.529 l 3.187,4.443 -0.681,-6.7 -1.319,0 z"
           inkscape:connector-curvature="0" />
        <path
           id="path5536"
           d="m 72.735,54.617 -9.572,-2.516 c -2.012,-0.528 -4.409,-1.672 -4.409,-4.127 l 0,-0.486 c 2.985,1.684 5.791,2.335 11.997,1.265 C 61.034,39.941 81.093,10.439 62.802,9.772 62.396,9.731 62.006,9.71 61.622,9.696 58.989,5.479 52.599,2.075 40.393,4.466 21.786,8.111 36.591,36.82 28.731,48.919 c 5.801,0.718 8.794,0.371 12.515,-1.791 l 0,0.96 c 0,2.456 -2.398,3.6 -4.41,4.128 l -9.573,2.516 c -4.139,1.088 -6.92,4.604 -6.92,8.748 l 0,15.285 0.532,0.138 c 2.779,0.716 5.608,1.313 8.472,1.815 L 28.302,70.435 c -0.131,-1.286 0.258,-2.504 1.094,-3.43 0.832,-0.92 1.995,-1.428 3.276,-1.428 l 36.378,0 c 1.279,0 2.441,0.507 3.271,1.426 0.836,0.925 1.225,2.144 1.094,3.432 L 72.4,80.404 c 2.268,-0.436 4.512,-0.934 6.725,-1.503 l 0.532,-0.138 0,-15.397 c 0,-4.145 -2.782,-7.661 -6.922,-8.749 z M 38.368,36.597 C 37.88,34.888 37.471,33.319 37.116,31.796 L 37.024,31.399 36.633,31.28 c -0.982,-0.3 -1.696,-1.487 -1.696,-2.823 0,-0.886 0.304,-1.714 0.833,-2.271 l 0.15,-0.158 0.035,-0.216 c 0.093,-0.569 0.155,-0.979 0.197,-1.313 9.012,-0.295 19.701,-3.362 24.144,-11.582 -0.079,3.953 1.686,6.288 4.21,7.783 0.003,0.124 0.01,0.239 0.013,0.364 0.039,1.914 0.006,2.11 -0.104,2.765 -0.062,0.372 -0.146,0.879 -0.254,1.848 l -0.035,0.316 0.213,0.236 c 0.503,0.558 0.791,1.369 0.791,2.227 0,1.279 -0.648,2.424 -1.576,2.782 l -0.348,0.134 -0.087,0.362 c -0.4,1.675 -0.892,3.292 -1.46,4.808 -1.021,2.722 -2.387,4.85 -4.063,6.326 -2.283,1.666 -5.017,3.36 -8.019,3.36 -0.003,0 -0.005,0 -0.008,0 -2.32,-0.001 -4.658,-1.571 -7.132,-3.232 L 42.134,42.792 C 40.397,41.276 39.095,39.147 38.368,36.597 Z M 50,60.064 c -4.9,-1.878 -7.914,-4.598 -9.924,-7.689 1.674,-1.052 2.587,-2.511 2.587,-4.289 l 0,-3.235 c 2.291,1.512 4.507,2.794 6.906,2.796 0.003,0 0.006,0 0.009,0 2.919,0 5.521,-1.347 7.758,-2.863 l 0,3.19 c 0,1.795 0.932,3.266 2.64,4.319 -2.01,3.127 -5.034,5.877 -9.976,7.771 z"
           inkscape:connector-curvature="0" />
        <path
           id="path5538"
           d="m 69.049,67.703 -36.378,0 c -0.672,0 -1.275,0.258 -1.698,0.727 -0.428,0.473 -0.625,1.108 -0.556,1.789 l 1.437,14.137 0.939,9.243 c 0.15,1.479 1.283,2.728 2.473,2.728 l 31.18,0 c 1.192,0 2.327,-1.249 2.478,-2.728 L 69.863,84.356 71.3,70.219 C 71.369,69.537 71.172,68.901 70.744,68.427 70.321,67.96 69.72,67.703 69.049,67.703 Z M 50.858,85.129 c -1.718,0 -3.115,-1.397 -3.115,-3.115 0,-1.717 1.397,-3.114 3.115,-3.114 1.717,0 3.114,1.397 3.114,3.114 10e-4,1.717 -1.397,3.115 -3.114,3.115 z"
           inkscape:connector-curvature="0" />
      </g>
      <text
         id="text5540"
         font-weight="bold"
         font-size="5px"
         y="102.87884"
         x="22.24082"
         style="font-weight:bold;font-size:5px;font-family:'Helvetica Neue', Helvetica, Arial-Unicode, Arial, Sans-serif;fill:#000000">Created by Nikita Kozin</text>
      <text
         id="text5542"
         font-weight="bold"
         font-size="5px"
         y="107.87884"
         x="23.758398"
         style="font-weight:bold;font-size:5px;font-family:'Helvetica Neue', Helvetica, Arial-Unicode, Arial, Sans-serif;fill:#000000">from the Noun Project</text>
    </g>
    <path
       style="fill:none;fill-rule:evenodd;stroke:#121259;stroke-width:1;stroke-linecap:butt;stroke-linejoin:miter;stroke-miterlimit:4;stroke-dasharray:none;stroke-opacity:1;marker-end:url(#marker5843)"
       d="M 373.80856,301.57696 95.228006,269.90788"
       id="path5559"
       inkscape:connector-curvature="0"
       sodipodi:nodetypes="cc" />
    <path
       style="fill:none;fill-rule:evenodd;stroke:#121259;stroke-width:1;stroke-linecap:butt;stroke-linejoin:miter;stroke-miterlimit:4;stroke-dasharray:none;stroke-opacity:1;marker-end:url(#Arrow1Lend)"
       d="m 418.89675,363.30484 -10.19852,47.772"
       id="path5561"
       inkscape:connector-curvature="0"
       sodipodi:nodetypes="cc" />
  </g>
</svg>
