<?xml version="1.0" encoding="UTF-8" standalone="no"?>
<!-- Created with Inkscape (http://www.inkscape.org/) -->

<svg
   xmlns:dc="http://purl.org/dc/elements/1.1/"
   xmlns:cc="http://creativecommons.org/ns#"
   xmlns:rdf="http://www.w3.org/1999/02/22-rdf-syntax-ns#"
   xmlns:svg="http://www.w3.org/2000/svg"
   xmlns="http://www.w3.org/2000/svg"
   xmlns:sodipodi="http://sodipodi.sourceforge.net/DTD/sodipodi-0.dtd"
   xmlns:inkscape="http://www.inkscape.org/namespaces/inkscape"
   id="svg6022"
   version="1.1"
   inkscape:version="0.91 r13725"
   xml:space="preserve"
   width="702.5"
   height="466.66251"
   viewBox="0 0 702.5 466.66251"
   sodipodi:docname="GBIF-2015.svg"><metadata
     id="metadata6028"><rdf:RDF><cc:Work
         rdf:about=""><dc:format>image/svg+xml</dc:format><dc:type
           rdf:resource="http://purl.org/dc/dcmitype/StillImage" /><dc:title></dc:title></cc:Work></rdf:RDF></metadata><defs
     id="defs6026" /><sodipodi:namedview
     pagecolor="#ffffff"
     bordercolor="#666666"
     borderopacity="1"
     objecttolerance="10"
     gridtolerance="10"
     guidetolerance="10"
     inkscape:pageopacity="0"
     inkscape:pageshadow="2"
     inkscape:window-width="905"
     inkscape:window-height="480"
     id="namedview6024"
     showgrid="false"
     inkscape:zoom="0.50571879"
     inkscape:cx="99.133604"
     inkscape:cy="233.33125"
     inkscape:window-x="59"
     inkscape:window-y="34"
     inkscape:window-maximized="0"
     inkscape:current-layer="g6030" /><g
     id="g6030"
     inkscape:groupmode="layer"
     inkscape:label="ink_ext_XXXXXX"
     transform="matrix(1.25,0,0,-1.25,0,466.6625)"><g
       id="g6032"
       transform="scale(0.1,0.1)"><path
         d="m 1424.52,1888.21 c 0,340.78 166.32,635.7 661.19,635.7 0,-341.52 -224.66,-635.7 -661.19,-635.7"
         style="fill:#47a138;fill-opacity:1;fill-rule:nonzero;stroke:none"
         id="path6034"
         inkscape:connector-curvature="0" /><path
         d="m 2217.41,993.441 c 92.69,0 163.93,13.189 237.1,40.109 0,269.7 -160.89,462.42 -445.08,601.3 -217.48,109.06 -485.16,165.52 -729.28,165.52 107.12,321.51 29.04,720.46 -74.77,939.44 -115.01,-229.42 -186.79,-622.73 -76.36,-942.74 -216.86,-15.81 -388.829,-110.27 -461.586,-234.83 -5.496,-9.5 -16.504,-29.74 -9.918,-33.21 5.183,-2.78 13.574,5.7 18.757,10.43 78.36,72.54 182.114,107.88 281.723,107.88 230.224,0 392.744,-191.05 507.574,-305.82 246.79,-246.77 488.02,-348.579 751.84,-348.079"
         style="fill:#47a138;fill-opacity:1;fill-rule:nonzero;stroke:none"
         id="path6036"
         inkscape:connector-curvature="0" /><path
         d="m 3168.37,2260.02 -120,-61.5 c -6,-3 -12,-7.5 -18,-7.5 -4.5,0 -9,3 -12,10.5 -26.99,64.5 -66,88.5 -106.5,88.5 l -98.99,0 c -58.5,0 -108,-49.5 -108,-108 l 0,-443.98 c 0,-58.5 49.5,-107.99 108,-107.99 l 73.5,0 c 60,0 106.49,47.99 106.49,107.99 l 0,70.5 c 0,10.49 -4.5,15 -15,15 l -141,0 c -10.49,0 -15,4.5 -15,15 l 0,127.49 c 0,10.5 4.51,15 15,15 l 313.5,0 c 10.5,0 14.99,-4.5 14.99,-15 l 0,-227.99 c 0,-155.99 -109.49,-265.49 -278.98,-265.49 l -73.5,0 c -171,0 -278.99,109.5 -278.99,265.49 l 0,443.98 c 0,155.99 107.99,265.49 278.99,265.49 l 98.99,0 c 124.5,0 192,-50.99 237,-121.49 13.49,-22.5 28.49,-46.5 28.49,-55.5 0,-4.5 -2.99,-7.5 -8.99,-10.5"
         style="fill:#231f20;fill-opacity:1;fill-rule:nonzero;stroke:none"
         id="path6038"
         inkscape:connector-curvature="0" /><path
         d="m 3753.36,1781.54 c 0,59.99 -48,106.49 -108,106.49 l -164.99,0 c -10.5,0 -15,-4.5 -15,-15 l 0,-212.98 c 0,-10.51 4.5,-15 15,-15 l 164.99,0 c 58.5,0 108,46.49 108,107.99 l 0,28.5 z m 0,385.48 c 0,58.5 -49.5,108 -108,108 l -164.99,0 c -10.5,0 -15,-4.5 -15,-15 l 0,-199.49 c 0,-10.5 4.5,-15 15,-15 l 164.99,0 c 58.5,0 108,49.5 108,107.99 l 0,13.5 z m -108,-679.47 -337.48,0 c -10.5,0 -15,4.5 -15,15 l 0,914.96 c 0,10.5 4.5,15 15,15 l 337.48,0 c 171,0 279,-109.5 279,-278.99 l 0,-15 c 0,-55.5 -36,-119.99 -79.51,-161.99 -4.5,-3 -5.99,-7.5 -5.99,-10.5 0,-3 1.49,-7.5 5.99,-10.5 43.51,-42 79.51,-114 79.51,-169.49 l 0,-22.5 c 0,-169.5 -108,-275.99 -279,-275.99"
         style="fill:#231f20;fill-opacity:1;fill-rule:nonzero;stroke:none"
         id="path6040"
         inkscape:connector-curvature="0" /><path
         d="m 4224.37,1487.55 -142.5,0 c -10.49,0 -15,4.5 -15,15 l 0,914.96 c 0,10.5 4.51,15 15,15 l 142.5,0 c 10.49,0 15,-4.5 15,-15 l 0,-914.96 c 0,-10.5 -4.51,-15 -15,-15"
         style="fill:#231f20;fill-opacity:1;fill-rule:nonzero;stroke:none"
         id="path6042"
         inkscape:connector-curvature="0" /><path
         d="m 4972.84,2275.02 -356.98,0 c -10.5,0 -15,-4.5 -15,-15 l 0,-199.49 c 0,-10.5 4.5,-15 15,-15 l 292.49,0 c 10.5,0 15,-4.5 15,-15 l 0,-127.5 c 0,-10.49 -4.5,-15 -15,-15 l -292.49,0 c -10.5,0 -15,-4.5 -15,-15 l 0,-370.48 c 0,-10.5 -4.5,-15 -15,-15 l -142.49,0 c -10.5,0 -15,4.5 -15,15 l 0,914.96 c 0,10.5 4.5,15 15,15 l 529.47,0 c 10.5,0 15,-4.5 15,-15 l 0,-127.49 c 0,-10.5 -4.5,-15 -15,-15"
         style="fill:#231f20;fill-opacity:1;fill-rule:nonzero;stroke:none"
         id="path6044"
         inkscape:connector-curvature="0" /></g></g></svg>