<svg xmlns="http://www.w3.org/2000/svg" viewBox="0 0 90 110.1875" x="0px" y="0px"><title>Asset 15</title><g data-name="Layer 2"><g data-name="Layer 1"><path d="M6.18,21a6,6,0,0,0,4.09-1.62,11.64,11.64,0,0,0,22.74,0A6,6,0,0,0,43.09,15H41a4,4,0,0,1-7.8.89c0-.25-.06-.49-.1-.74,0,0,0-.1,0-.15h0a11.63,11.63,0,0,0-22.95,0h0c0,.12,0,.24,0,.36s0,.27-.06.41A4,4,0,0,1,2.23,15H.17A6,6,0,0,0,6.18,21Zm5.92-5c0-.14,0-.27.06-.41a9.58,9.58,0,0,1,18.94-.21,6.12,6.12,0,0,0,.1.83c0,.24,0,.48,0,.72A9.59,9.59,0,0,1,12,16.9C12,16.59,12.07,16.28,12.1,16ZM36.38,49.06a10.78,10.78,0,0,0,0-15.22l-1.45,1.45A8.72,8.72,0,0,1,35.49,47L28,29.55a8.93,8.93,0,0,1-12.63,0L7.79,47a8.72,8.72,0,0,1,.54-11.72L6.88,33.83a10.77,10.77,0,0,0,0,15.22l0,0L0,65a30.61,30.61,0,0,0,43.28,0l-6.9-16Zm4.45,15.48a28.56,28.56,0,0,1-38.38,0L16.17,32.77a11,11,0,0,0,10.94,0ZM16.37,87.14h2.05V75.89H16.37Zm7.54,0H26V75.89H23.9ZM13.15,55.47H11.1a10.54,10.54,0,1,0,21.09,0H30.13a8.49,8.49,0,1,1-17,0ZM53.67,9.72A10.34,10.34,0,0,0,53.58,11a11,11,0,1,0,.53-3.36H48.37V9.72h5.3ZM64.62,2.05a9,9,0,0,1,8.33,5.62H56.29A9,9,0,0,1,64.62,2.05ZM55.73,9.72H73.5a9.18,9.18,0,0,1,.1,1.31,9,9,0,0,1-18,0A9.09,9.09,0,0,1,55.73,9.72Zm33.79,17L87.8,27.85h0a.89.89,0,0,1-1.5,1l-.05,0h0a6.82,6.82,0,0,0-8.85-1.21,6,6,0,0,0-.62.46h0a15.71,15.71,0,0,0-1.42-1.66L73.9,27.9a13.84,13.84,0,0,1,1.25,1.46,9,9,0,0,0-1.63-.15,7.9,7.9,0,0,0-.81,0l-.57-4.37-1.74-.6a8.16,8.16,0,0,1-11.53,0l-1.74.6L54.93,41.34a9.09,9.09,0,0,0-.78,3.72A13.54,13.54,0,0,1,55.77,27.9l-1.45-1.45a15.58,15.58,0,0,0-.3,21.7v40H75.21V48.34l.14.14c.38-.38.73-.77,1.07-1.18l2.1-1.37a9.13,9.13,0,0,0,4-5.9,6.66,6.66,0,0,0,2.39-1,6.82,6.82,0,0,0,2.74-7.82h0a2.94,2.94,0,0,0,1.93-4.5ZM58.91,27a10.23,10.23,0,0,0,11.43,0l.36,2.69a7.09,7.09,0,0,0-.9.35l0,0-.29.2a7.84,7.84,0,0,0-.91.51L58.27,37.4a9.43,9.43,0,0,0-.83.61Zm-2,14.94a6.91,6.91,0,0,1,2.46-2.79l4.71-3.07a17.3,17.3,0,0,0-1.9,11.2,15.45,15.45,0,0,0,.48,2.05,17.05,17.05,0,0,0,1.09,2.74l-.51,0a7,7,0,0,1-5.6-2.76,5,5,0,0,1-.31-.43,6.92,6.92,0,0,1-.78-1.62,5.63,5.63,0,0,1-.23-.88A7,7,0,0,1,56.93,41.92ZM73.16,86.1H65.64V61.7H63.59V86.1H56.07V50.62a9.09,9.09,0,0,0,12.15,2l4.94-3.22ZM75,45.75l-.12.08L73,47.07l-.28.18-3.15,2.05L67.1,50.92a6.43,6.43,0,0,1-1.12.59h0l0,.25-.1-.18a15.12,15.12,0,0,1-1-2.26,16.26,16.26,0,0,1-.55-2.05,15.25,15.25,0,0,1,.06-6,15,15,0,0,1,3.1-6.46,12.14,12.14,0,0,0,1.08,4.64,12.4,12.4,0,0,0,4.13,5,12,12,0,0,0,2.23,1.24l.15.07Zm2.39-.34h0ZM79,42.76a6.91,6.91,0,0,1-1.61,1.44l-.17.11-.64-.18h0L76.18,44a9.79,9.79,0,0,1-1.63-.77,10.16,10.16,0,0,1-2.31-1.85,10.35,10.35,0,0,1-2.76-6.52,10.25,10.25,0,0,1,0-1.53h0a6.53,6.53,0,0,1,.1-.72L70,32.3c.16-.13.34-.25.51-.37l.44-.18a6.76,6.76,0,0,1,2-.46,4.73,4.73,0,0,1,.54,0,6.54,6.54,0,0,1,1.1.09,5.94,5.94,0,0,0-.16.6A6.84,6.84,0,0,0,79.7,40c.21,0,.42.08.64.1A7,7,0,0,1,79,42.76Zm4.74-5.42a4.6,4.6,0,0,1-1.11.53,4,4,0,0,1-1,.22,3.47,3.47,0,0,1-.46,0A4.93,4.93,0,0,1,79.89,38a4.74,4.74,0,0,1-2.05-1.16,5,5,0,0,1-.7-.85,4.71,4.71,0,0,1-.67-3.58,5.48,5.48,0,0,1,.16-.57A4.33,4.33,0,0,1,77,31a4.64,4.64,0,0,1,.61-.85,2.81,2.81,0,0,1,.33-.32,4.19,4.19,0,0,1,.61-.48,4.76,4.76,0,0,1,6.59,1.38A4.77,4.77,0,0,1,83.73,37.34ZM81,31.3a.75.75,0,0,1-.58-.89l.14-.67-1.34-.28-.14.67a2.12,2.12,0,0,0,1.64,2.51l.67.14.28-1.34Zm2,3,.14-.67-1.34-.28-.14.67a2.12,2.12,0,0,0,1.64,2.51l.67.14.28-1.34-.67-.14A.75.75,0,0,1,83,34.29Z"/></g></g><text x="0" y="103.15" fill="#000000" font-size="5px" font-weight="bold" font-family="'Helvetica Neue', Helvetica, Arial-Unicode, Arial, Sans-serif">Created by Anna Bearne</text><text x="0" y="108.15" fill="#000000" font-size="5px" font-weight="bold" font-family="'Helvetica Neue', Helvetica, Arial-Unicode, Arial, Sans-serif">from the Noun Project</text></svg>