<svg xmlns="http://www.w3.org/2000/svg" xmlns:xlink="http://www.w3.org/1999/xlink" version="1.1" x="0px" y="0px" viewBox="0 0 64 80" enable-background="new 0 0 64 64" xml:space="preserve"><g><path fill="#000000" d="M40.338,36.195c0,1.988,0.007,3.975-0.007,5.963c-0.003,0.364,0.093,0.636,0.341,0.913   c2.08,2.327,3.098,5.07,2.981,8.181c-0.214,5.674-4.41,10.286-10.032,11.11c-6.18,0.906-12.133-3.438-13.114-9.573   c-0.587-3.667,0.364-6.898,2.793-9.691c0.27-0.311,0.365-0.607,0.364-1.001c-0.01-3.894-0.041-28.048,0.005-31.941   c0.048-4.107,2.737-8.017,6.961-8.566c2.658-0.346,5.405,0.573,7.332,2.432c1.578,1.818,2.386,3.925,2.377,6.342   C40.332,12.221,40.338,34.338,40.338,36.195z M37.033,36.952c0-2.151,0.012-24.561-0.004-26.712   c-0.032-2.072-0.803-3.748-2.17-4.625c-1.53-0.982-3.837-1.317-5.411-0.242c-1.571,1.073-2.461,2.932-2.474,4.808   c-0.03,4.122-0.036,28.504,0.012,32.626c0.01,0.883-0.217,1.508-0.864,2.12c-1.528,1.444-2.351,3.273-2.472,5.369   c-0.306,5.302,4.213,9.473,9.482,8.787c4.919-0.64,8.194-5.501,6.967-10.312c-0.451-1.769-1.444-3.184-2.755-4.404   c-0.233-0.217-0.321-0.447-0.319-0.766C37.039,41.383,37.033,39.168,37.033,36.952z"/><path fill="#000000" d="M34.311,45.737c-0.024-0.104-0.038-0.207-0.039-0.306c-0.015-1.84-0.024-17.356-0.024-17.356   c0-1.216-1-2.2-2.234-2.2c-1.234,0-2.235,0.985-2.235,2.2c0,0,0.004,13.246,0.016,17.218c0.001,0.147-0.012,0.284-0.038,0.414   c-2.031,0.87-3.454,2.888-3.454,5.238c0,0.535,0.073,1.053,0.212,1.544c0.673,2.396,2.873,4.152,5.484,4.152   c2.754,0,5.05-1.953,5.582-4.549c0,0,0,0,0-0.001c0.075-0.371,0.115-0.754,0.115-1.147C37.697,48.621,36.306,46.623,34.311,45.737z   "/></g><text x="0" y="79" fill="#000000" font-size="5px" font-weight="bold" font-family="'Helvetica Neue', Helvetica, Arial-Unicode, Arial, Sans-serif">Created by Delwar Hossain</text><text x="0" y="84" fill="#000000" font-size="5px" font-weight="bold" font-family="'Helvetica Neue', Helvetica, Arial-Unicode, Arial, Sans-serif">from the Noun Project</text></svg>